<svg preserveAspectRatio="none" width="100%" height="100%" overflow="visible" style="display: block;" viewBox="0 0 63 63" fill="none" xmlns="http://www.w3.org/2000/svg">
<g id="order 1">
<path id="Vector" d="M57.5984 47.6797L53.0246 18.7666C52.5689 15.8779 50.1156 13.7812 47.1904 13.7812H43.1347C42.1929 8.20353 37.3417 3.9375 31.5 3.9375C25.6583 3.9375 20.8071 8.20353 19.8653 13.7812H15.8096C12.8844 13.7812 10.4311 15.8779 9.97545 18.7656L5.40157 47.6797C4.95168 50.528 5.76782 53.4196 7.6414 55.6124C9.51402 57.8051 12.2422 59.0625 15.1261 59.0625H47.8739C50.7578 59.0625 53.486 57.8051 55.3586 55.6124C57.2322 53.4196 58.0483 50.528 57.5984 47.6797ZM31.5 7.875C35.1585 7.875 38.2148 10.3945 39.0954 13.7812H23.9046C24.7852 10.3945 27.8415 7.875 31.5 7.875ZM52.3651 53.0544C51.2413 54.3704 49.6042 55.125 47.8739 55.125H15.1261C13.3958 55.125 11.7587 54.3704 10.6349 53.0544C9.51018 51.7383 9.02087 50.0041 9.291 48.2949L13.8649 19.3799C14.0168 18.4176 14.8348 17.7188 15.8096 17.7188H47.1904C48.1652 17.7188 48.9832 18.4176 49.1351 19.3808L53.709 48.2949C53.9791 50.0041 53.4898 51.7383 52.3651 53.0544Z" fill="var(--fill-0, #737373)"/>
</g>
</svg>
