<svg preserveAspectRatio="none" width="100%" height="100%" overflow="visible" style="display: block;" viewBox="0 0 69 69" fill="none" xmlns="http://www.w3.org/2000/svg">
<g id="trade 1" clip-path="url(#clip0_0_4)">
<path id="Vector" d="M64.4 4.6C64.4 3.38 63.9154 2.20998 63.0527 1.34731C62.19 0.484642 61.02 0 59.8 0L4.6 0C3.38 0 2.20998 0.484642 1.34731 1.34731C0.484642 2.20998 0 3.38 0 4.6L0 59.8C0 61.02 0.484642 62.19 1.34731 63.0527C2.20998 63.9154 3.38 64.4 4.6 64.4H41.6542C44.6835 67.3531 48.7542 68.9939 52.9846 68.9669C57.2151 68.94 61.2646 67.2475 64.256 64.256C67.2475 61.2646 68.94 57.2151 68.9669 52.9846C68.9939 48.7542 67.3531 44.6835 64.4 41.6542V4.6ZM4.6 2.3H59.8C60.41 2.3 60.995 2.54232 61.4264 2.97365C61.8577 3.40499 62.1 3.99 62.1 4.6V9.2H2.3V4.6C2.3 3.99 2.54232 3.40499 2.97365 2.97365C3.40499 2.54232 3.99 2.3 4.6 2.3ZM2.3 59.8V11.5H62.1V39.7061C60.3692 38.4914 58.4149 37.6315 56.35 37.1761V33.35C56.96 33.35 57.545 33.1077 57.9764 32.6764C58.4077 32.245 58.65 31.66 58.65 31.05V21.85C58.65 21.24 58.4077 20.655 57.9764 20.2237C57.545 19.7923 56.96 19.55 56.35 19.55V14.95C56.35 14.645 56.2288 14.3525 56.0132 14.1368C55.7975 13.9212 55.505 13.8 55.2 13.8C54.895 13.8 54.6025 13.9212 54.3868 14.1368C54.1712 14.3525 54.05 14.645 54.05 14.95V19.55C53.44 19.55 52.855 19.7923 52.4237 20.2237C51.9923 20.655 51.75 21.24 51.75 21.85V31.05C51.75 31.66 51.9923 32.245 52.4237 32.6764C52.855 33.1077 53.44 33.35 54.05 33.35V36.8587C53.6682 36.8311 53.2887 36.8 52.9 36.8C50.9332 36.803 48.9839 37.1691 47.15 37.8799V35.65C47.76 35.65 48.345 35.4077 48.7764 34.9764C49.2077 34.545 49.45 33.96 49.45 33.35V24.15C49.45 23.54 49.2077 22.955 48.7764 22.5237C48.345 22.0923 47.76 21.85 47.15 21.85V17.25C47.15 16.945 47.0288 16.6525 46.8132 16.4368C46.5975 16.2212 46.305 16.1 46 16.1C45.695 16.1 45.4025 16.2212 45.1868 16.4368C44.9712 16.6525 44.85 16.945 44.85 17.25V21.85C44.24 21.85 43.655 22.0923 43.2237 22.5237C42.7923 22.955 42.55 23.54 42.55 24.15V33.35C42.55 33.96 42.7923 34.545 43.2237 34.9764C43.655 35.4077 44.24 35.65 44.85 35.65V38.9781C42.9181 40.0886 41.2387 41.5893 39.9187 43.3846C38.5987 45.1799 37.6671 47.2304 37.1832 49.4056C36.6993 51.5808 36.6737 53.8328 37.108 56.0184C37.5424 58.204 38.4272 60.2752 39.7061 62.1H4.6C3.99 62.1 3.40499 61.8577 2.97365 61.4264C2.54232 60.995 2.3 60.41 2.3 59.8ZM56.35 21.85V31.05H54.05V21.85H56.35ZM47.15 24.15V33.35H44.85V24.15H47.15ZM52.9 66.7C50.1706 66.7 47.5025 65.8907 45.2331 64.3743C42.9637 62.8579 41.195 60.7027 40.1505 58.181C39.106 55.6594 38.8327 52.8847 39.3652 50.2078C39.8976 47.5308 41.212 45.0719 43.1419 43.1419C45.0719 41.212 47.5308 39.8976 50.2078 39.3652C52.8847 38.8327 55.6594 39.106 58.181 40.1505C60.7027 41.195 62.8579 42.9637 64.3743 45.2331C65.8907 47.5025 66.7 50.1706 66.7 52.9C66.6961 56.5588 65.2409 60.0666 62.6537 62.6537C60.0666 65.2409 56.5588 66.6961 52.9 66.7Z" fill="var(--fill-0, #737373)"/>
<path id="Vector_2" d="M10.35 34.5V29.9C10.35 29.595 10.2288 29.3025 10.0132 29.0868C9.7975 28.8712 9.505 28.75 9.2 28.75C8.895 28.75 8.60249 28.8712 8.38683 29.0868C8.17116 29.3025 8.05 29.595 8.05 29.9V34.5C7.44 34.5 6.85499 34.7423 6.42365 35.1737C5.99232 35.605 5.75 36.19 5.75 36.8V46C5.75 46.61 5.99232 47.195 6.42365 47.6263C6.85499 48.0577 7.44 48.3 8.05 48.3V52.9C8.05 53.205 8.17116 53.4975 8.38683 53.7132C8.60249 53.9288 8.895 54.05 9.2 54.05C9.505 54.05 9.7975 53.9288 10.0132 53.7132C10.2288 53.4975 10.35 53.205 10.35 52.9V48.3C10.96 48.3 11.545 48.0577 11.9763 47.6263C12.4077 47.195 12.65 46.61 12.65 46V36.8C12.65 36.19 12.4077 35.605 11.9763 35.1737C11.545 34.7423 10.96 34.5 10.35 34.5ZM8.05 46V36.8H10.35V46H8.05Z" fill="var(--fill-0, #737373)"/>
<path id="Vector_3" d="M19.55 28.75V24.15C19.55 23.845 19.4288 23.5525 19.2132 23.3368C18.9975 23.1212 18.705 23 18.4 23C18.095 23 17.8025 23.1212 17.5868 23.3368C17.3712 23.5525 17.25 23.845 17.25 24.15V28.75C16.64 28.75 16.055 28.9923 15.6237 29.4237C15.1923 29.855 14.95 30.44 14.95 31.05V40.25C14.95 40.86 15.1923 41.445 15.6237 41.8763C16.055 42.3077 16.64 42.55 17.25 42.55V47.15C17.25 47.455 17.3712 47.7475 17.5868 47.9632C17.8025 48.1788 18.095 48.3 18.4 48.3C18.705 48.3 18.9975 48.1788 19.2132 47.9632C19.4288 47.7475 19.55 47.455 19.55 47.15V42.55C20.16 42.55 20.745 42.3077 21.1763 41.8763C21.6077 41.445 21.85 40.86 21.85 40.25V31.05C21.85 30.44 21.6077 29.855 21.1763 29.4237C20.745 28.9923 20.16 28.75 19.55 28.75ZM17.25 40.25V31.05H19.55V40.25H17.25Z" fill="var(--fill-0, #737373)"/>
<path id="Vector_4" d="M28.75 35.65V31.05C28.75 30.745 28.6288 30.4525 28.4132 30.2368C28.1975 30.0212 27.905 29.9 27.6 29.9C27.295 29.9 27.0025 30.0212 26.7868 30.2368C26.5712 30.4525 26.45 30.745 26.45 31.05V35.65C25.84 35.65 25.255 35.8923 24.8237 36.3237C24.3923 36.755 24.15 37.34 24.15 37.95V47.15C24.15 47.76 24.3923 48.345 24.8237 48.7764C25.255 49.2077 25.84 49.45 26.45 49.45V54.05C26.45 54.355 26.5712 54.6475 26.7868 54.8632C27.0025 55.0788 27.295 55.2 27.6 55.2C27.905 55.2 28.1975 55.0788 28.4132 54.8632C28.6288 54.6475 28.75 54.355 28.75 54.05V49.45C29.36 49.45 29.945 49.2077 30.3763 48.7764C30.8077 48.345 31.05 47.76 31.05 47.15V37.95C31.05 37.34 30.8077 36.755 30.3763 36.3237C29.945 35.8923 29.36 35.65 28.75 35.65ZM26.45 47.15V37.95H28.75V47.15H26.45Z" fill="var(--fill-0, #737373)"/>
<path id="Vector_5" d="M5.75 6.9H6.9C7.205 6.9 7.49751 6.77884 7.71317 6.56317C7.92884 6.3475 8.05 6.055 8.05 5.75C8.05 5.445 7.92884 5.15249 7.71317 4.93683C7.49751 4.72116 7.205 4.6 6.9 4.6H5.75C5.445 4.6 5.15249 4.72116 4.93683 4.93683C4.72116 5.15249 4.6 5.445 4.6 5.75C4.6 6.055 4.72116 6.3475 4.93683 6.56317C5.15249 6.77884 5.445 6.9 5.75 6.9Z" fill="var(--fill-0, #737373)"/>
<path id="Vector_6" d="M11.5 6.9H12.65C12.955 6.9 13.2475 6.77884 13.4632 6.56317C13.6788 6.3475 13.8 6.055 13.8 5.75C13.8 5.445 13.6788 5.15249 13.4632 4.93683C13.2475 4.72116 12.955 4.6 12.65 4.6H11.5C11.195 4.6 10.9025 4.72116 10.6868 4.93683C10.4712 5.15249 10.35 5.445 10.35 5.75C10.35 6.055 10.4712 6.3475 10.6868 6.56317C10.9025 6.77884 11.195 6.9 11.5 6.9Z" fill="var(--fill-0, #737373)"/>
<path id="Vector_7" d="M17.25 6.9H18.4C18.705 6.9 18.9975 6.77884 19.2132 6.56317C19.4288 6.3475 19.55 6.055 19.55 5.75C19.55 5.445 19.4288 5.15249 19.2132 4.93683C18.9975 4.72116 18.705 4.6 18.4 4.6H17.25C16.945 4.6 16.6525 4.72116 16.4368 4.93683C16.2212 5.15249 16.1 5.445 16.1 5.75C16.1 6.055 16.2212 6.3475 16.4368 6.56317C16.6525 6.77884 16.945 6.9 17.25 6.9Z" fill="var(--fill-0, #737373)"/>
<path id="Vector_8" d="M51.75 6.9H58.65C58.955 6.9 59.2475 6.77884 59.4632 6.56317C59.6788 6.3475 59.8 6.055 59.8 5.75C59.8 5.445 59.6788 5.15249 59.4632 4.93683C59.2475 4.72116 58.955 4.6 58.65 4.6H51.75C51.445 4.6 51.1525 4.72116 50.9368 4.93683C50.7212 5.15249 50.6 5.445 50.6 5.75C50.6 6.055 50.7212 6.3475 50.9368 6.56317C51.1525 6.77884 51.445 6.9 51.75 6.9Z" fill="var(--fill-0, #737373)"/>
<path id="Vector_9" d="M60.95 55.2H47.6261L47.9631 54.8631C48.1725 54.6462 48.2884 54.3557 48.2858 54.0541C48.2832 53.7526 48.1623 53.4642 47.949 53.251C47.7358 53.0377 47.4474 52.9168 47.1459 52.9142C46.8443 52.9116 46.5538 53.0275 46.337 53.2369L44.037 55.537C43.8214 55.7526 43.7002 56.0451 43.7002 56.35C43.7002 56.6549 43.8214 56.9474 44.037 57.1631L46.337 59.4631C46.5538 59.6725 46.8443 59.7884 47.1459 59.7858C47.4474 59.7832 47.7358 59.6623 47.949 59.449C48.1623 59.2358 48.2832 58.9474 48.2858 58.6459C48.2884 58.3443 48.1725 58.0538 47.9631 57.8369L47.6261 57.5H60.95C61.255 57.5 61.5475 57.3788 61.7632 57.1632C61.9788 56.9475 62.1 56.655 62.1 56.35C62.1 56.045 61.9788 55.7525 61.7632 55.5368C61.5475 55.3212 61.255 55.2 60.95 55.2Z" fill="var(--fill-0, #737373)"/>
<path id="Vector_10" d="M59.463 46.337C59.2462 46.1275 58.9557 46.0116 58.6541 46.0142C58.3526 46.0168 58.0642 46.1377 57.851 46.351C57.6377 46.5642 57.5168 46.8526 57.5142 47.1541C57.5116 47.4557 57.6275 47.7462 57.8369 47.9631L58.1739 48.3H44.85C44.545 48.3 44.2525 48.4212 44.0368 48.6368C43.8212 48.8525 43.7 49.145 43.7 49.45C43.7 49.755 43.8212 50.0475 44.0368 50.2632C44.2525 50.4788 44.545 50.6 44.85 50.6H58.1739L57.8369 50.937C57.7271 51.043 57.6395 51.1699 57.5792 51.3102C57.519 51.4505 57.4872 51.6014 57.4859 51.7541C57.4846 51.9068 57.5137 52.0583 57.5715 52.1996C57.6293 52.3409 57.7147 52.4693 57.8227 52.5773C57.9307 52.6853 58.0591 52.7707 58.2004 52.8285C58.3417 52.8863 58.4932 52.9154 58.6459 52.9141C58.7986 52.9128 58.9495 52.881 59.0898 52.8208C59.2301 52.7605 59.357 52.6729 59.463 52.5631L61.763 50.2631C61.9786 50.0474 62.0998 49.7549 62.0998 49.45C62.0998 49.1451 61.9786 48.8526 61.763 48.637L59.463 46.337Z" fill="var(--fill-0, #737373)"/>
<path id="Vector_11" d="M37.95 41.4V36.8C38.56 36.8 39.145 36.5577 39.5763 36.1263C40.0077 35.695 40.25 35.11 40.25 34.5V25.3C40.25 24.69 40.0077 24.105 39.5763 23.6737C39.145 23.2423 38.56 23 37.95 23V18.4C37.95 18.095 37.8288 17.8025 37.6132 17.5868C37.3975 17.3712 37.105 17.25 36.8 17.25C36.495 17.25 36.2025 17.3712 35.9868 17.5868C35.7712 17.8025 35.65 18.095 35.65 18.4V23C35.04 23 34.455 23.2423 34.0237 23.6737C33.5923 24.105 33.35 24.69 33.35 25.3V34.5C33.35 35.11 33.5923 35.695 34.0237 36.1263C34.455 36.5577 35.04 36.8 35.65 36.8V41.4C35.65 41.705 35.7712 41.9975 35.9868 42.2132C36.2025 42.4288 36.495 42.55 36.8 42.55C37.105 42.55 37.3975 42.4288 37.6132 42.2132C37.8288 41.9975 37.95 41.705 37.95 41.4ZM35.65 25.3H37.95V34.5H35.65V25.3Z" fill="var(--fill-0, #737373)"/>
</g>
<defs>
<clipPath id="clip0_0_4">
<rect width="69" height="69" fill="white"/>
</clipPath>
</defs>
</svg>
