<svg preserveAspectRatio="none" width="100%" height="100%" overflow="visible" style="display: block;" viewBox="0 0 52 67" fill="none" xmlns="http://www.w3.org/2000/svg">
<g id="Group 2147235261">
<path id="Vector (Stroke)" d="M49.8818 53.9565V5.21824C49.8818 3.49862 48.4497 2.08736 46.7047 2.08735H5.29534C3.55031 2.08735 2.11819 3.49862 2.11819 5.21824V42.8938C2.11816 43.4702 1.64398 43.9374 1.05909 43.9374C0.474205 43.9374 2.33318e-05 43.4702 0 42.8938V5.21824C2.2686e-06 2.34584 2.3805 2.09558e-06 5.29534 0H46.7047C49.6195 5.11121e-06 52 2.34585 52 5.21824V53.9565C52 54.5328 51.5258 55 50.9409 55C50.356 55 49.8818 54.5328 49.8818 53.9565Z" fill="var(--fill-0, #737373)"/>
<path id="Vector (Stroke)_2" d="M0 61.9275V61.0145C0 60.4542 0.477595 60 1.0667 60C1.6558 60 2.1334 60.4542 2.1334 61.0145V61.9275C2.1334 63.5991 3.5758 64.9711 5.33336 64.9711H38.9333C39.5224 64.9711 40 65.4252 40 65.9855C40 66.5458 39.5224 67 38.9333 67H5.33336C2.39759 67 0 64.7197 0 61.9275Z" fill="var(--fill-0, #737373)"/>
<path id="Vector (Stroke)_3" d="M50.9472 53C51.373 53 51.7569 53.2565 51.9199 53.6498C52.0828 54.0431 51.9927 54.4959 51.6917 54.797L39.797 66.6917C39.4959 66.9927 39.0431 67.0828 38.6498 66.9199C38.2565 66.7569 38 66.373 38 65.9472V57.9474C38 55.1371 40.2794 53 42.9474 53H50.9472ZM40.1053 63.406L48.406 55.1053H42.9474C41.4048 55.1053 40.1053 56.3367 40.1053 57.9474V63.406Z" fill="var(--fill-0, #737373)"/>
<path id="Vector (Stroke)_4" d="M10.6364 22C11.3894 22 12 22.4477 12 23C12 23.5523 11.3894 24 10.6364 24H10.3636C9.61054 24 9 23.5523 9 23C9 22.4477 9.61054 22 10.3636 22H10.6364Z" fill="var(--fill-0, #737373)"/>
<path id="Vector (Stroke)_5" d="M40.9774 22C41.5422 22 42 22.4477 42 23C42 23.5523 41.5422 24 40.9774 24H16.0228C15.4579 24 15 23.5523 15 23C15 22.4477 15.4579 22 16.0228 22H40.9774Z" fill="var(--fill-0, #737373)"/>
<path id="Vector (Stroke)_6" d="M10.6364 29C11.3894 29 12 29.6716 12 30.5C12 31.3284 11.3894 32 10.6364 32H10.3636C9.61054 32 9 31.3284 9 30.5C9 29.6716 9.61054 29 10.3636 29H10.6364Z" fill="var(--fill-0, #737373)"/>
<path id="Vector (Stroke)_7" d="M40.9774 29C41.5422 29 42 29.6716 42 30.5C42 31.3284 41.5422 32 40.9774 32H16.0228C15.4579 32 15 31.3284 15 30.5C15 29.6716 15.4579 29 16.0228 29H40.9774Z" fill="var(--fill-0, #737373)"/>
<path id="Vector (Stroke)_8" d="M10.6364 37C11.3894 37 12 37.4477 12 38C12 38.5523 11.3894 39 10.6364 39H10.3636C9.61054 39 9 38.5523 9 38C9 37.4477 9.61054 37 10.3636 37H10.6364Z" fill="var(--fill-0, #737373)"/>
<path id="Vector (Stroke)_9" d="M40.9774 37C41.5422 37 42 37.4477 42 38C42 38.5523 41.5422 39 40.9774 39H16.0228C15.4579 39 15 38.5523 15 38C15 37.4477 15.4579 37 16.0228 37H40.9774Z" fill="var(--fill-0, #737373)"/>
<path id="Vector (Stroke)_10" d="M10.6364 45C11.3894 45 12 45.4477 12 46C12 46.5523 11.3894 47 10.6364 47H10.3636C9.61054 47 9 46.5523 9 46C9 45.4477 9.61054 45 10.3636 45H10.6364Z" fill="var(--fill-0, #737373)"/>
<path id="Vector (Stroke)_11" d="M40.9774 45C41.5422 45 42 45.4477 42 46C42 46.5523 41.5422 47 40.9774 47H16.0228C15.4579 47 15 46.5523 15 46C15 45.4477 15.4579 45 16.0228 45H40.9774Z" fill="var(--fill-0, #737373)"/>
<path id="Vector (Stroke)_12" d="M31.9147 53C32.5141 53 33 53.4477 33 54C33 54.5523 32.5141 55 31.9147 55H20.0853C19.4859 55 19 54.5523 19 54C19 53.4477 19.4859 53 20.0853 53H31.9147Z" fill="var(--fill-0, #737373)"/>
</g>
</svg>
