<svg preserveAspectRatio="none" width="100%" height="100%" overflow="visible" style="display: block;" viewBox="0 0 75.3755 68.8602" fill="none" xmlns="http://www.w3.org/2000/svg">
<g id="Group">
<path id="Vector" d="M56.582 39.9357C56.0983 39.371 55.4704 38.999 54.7136 38.8139V37.5152C54.7136 36.937 54.2447 36.4682 53.6666 36.4682C53.0884 36.4682 52.6196 36.937 52.6196 37.5152V38.7609C51.8847 38.9 51.2512 39.2115 50.7324 39.6981C49.9895 40.3945 49.6129 41.3598 49.6129 42.567C49.6129 43.4023 49.8267 44.1891 50.2479 44.9048C50.6225 45.5416 51.1345 46.1722 51.7727 46.7823L52.4546 47.4292C52.4641 47.4389 52.4709 47.4502 52.4808 47.4596L53.3459 48.28C53.8413 48.7537 54.2328 49.2322 54.5096 49.7029C54.7424 50.0983 54.8556 50.5157 54.8556 50.9788C54.8556 51.5926 54.706 52.0314 54.3979 52.3201C54.0705 52.627 53.6225 52.7763 53.0278 52.7763C52.352 52.7763 51.8755 52.6036 51.5708 52.2478C51.2107 51.8276 50.9964 51.189 50.9334 50.3497C50.8904 49.773 50.3887 49.3407 49.811 49.3839C49.2344 49.427 48.8019 49.9295 48.8453 50.5062C48.9421 51.7999 49.3243 52.8443 49.9806 53.6101C50.4642 54.1748 51.0921 54.5469 51.849 54.732V56.0306C51.849 56.6088 52.3178 57.0776 52.896 57.0776C53.4742 57.0776 53.943 56.6088 53.943 56.0306V54.7849C54.6778 54.6458 55.3115 54.3343 55.8304 53.8475C56.5731 53.1511 56.9497 52.1859 56.9497 50.9788C56.9497 50.1435 56.7359 49.3568 56.3147 48.641C55.9401 48.0041 55.4281 47.3733 54.79 46.7633L54.1068 46.1155C54.0977 46.1062 54.0912 46.0953 54.0817 46.0863L53.2169 45.2659C52.7211 44.792 52.3296 44.3133 52.0529 43.8429C51.8202 43.4475 51.7069 43.0302 51.7069 42.5671C51.7069 41.9534 51.8566 41.5147 52.1648 41.2257C52.492 40.9188 52.9402 40.7695 53.5348 40.7695C54.2106 40.7695 54.687 40.9422 54.9917 41.2981C55.3518 41.7182 55.5662 42.3568 55.6292 43.1962C55.6723 43.7729 56.1743 44.2088 56.7515 44.162C57.3282 44.1188 57.7606 43.6163 57.7173 43.0396C57.6205 41.7459 57.2382 40.7015 56.582 39.9357Z" fill="var(--fill-0, #737373)"/>
<path id="Vector_2" d="M53.3612 32.5226C45.4633 32.5226 39.038 38.9479 39.038 46.8458C39.038 54.7437 45.4633 61.169 53.3612 61.169C61.2591 61.169 67.6844 54.7437 67.6844 46.8458C67.6844 38.9479 61.2591 32.5226 53.3612 32.5226ZM53.3612 59.0749C46.618 59.0749 41.1321 53.589 41.1321 46.8458C41.1321 40.1026 46.618 34.6167 53.3612 34.6167C60.1044 34.6167 65.5904 40.1026 65.5904 46.8458C65.5904 53.589 60.1044 59.0749 53.3612 59.0749Z" fill="var(--fill-0, #737373)"/>
<path id="Vector_3" d="M53.3612 24.8316C51.9192 24.8316 50.5097 24.9725 49.1443 25.2385V22.5979H62.8352C63.4134 22.5979 63.8822 22.1291 63.8822 21.5509V11.2989C63.8822 10.7207 63.4134 10.2519 62.8352 10.2519H58.0001V1.04703C58.0001 0.468859 57.5313 0 56.9531 0H14.4678C13.8897 0 13.4208 0.468859 13.4208 1.04703V11.2988C13.4208 11.877 13.8897 12.3459 14.4678 12.3459H19.3029V20.4732H9.24199C8.66383 20.4732 8.19497 20.942 8.19497 21.5202V30.6945H1.04703C0.468859 30.6945 0 31.1634 0 31.7415V41.9936C0 42.5717 0.468859 43.0406 1.04703 43.0406H8.19497V51.1983H1.04703C0.468859 51.1983 0 51.6672 0 52.2454V62.4974C0 63.0756 0.468859 63.5444 1.04703 63.5444H39.0321C42.8857 66.856 47.8936 68.8602 53.3612 68.8602C65.5 68.8602 75.3755 58.9847 75.3755 46.8459C75.3755 34.7071 65.5 24.8316 53.3612 24.8316ZM15.5149 6.90179H22.9041C23.4823 6.90179 23.9511 6.43293 23.9511 5.85477C23.9511 5.2766 23.4823 4.80774 22.9041 4.80774H15.5149V2.09405H55.9061V10.2518H20.3499H15.5149V6.90179ZM21.397 12.3459H56.9531H61.7882V15.3779H48.0972C47.5191 15.3779 47.0502 15.8467 47.0502 16.4249C47.0502 17.0031 47.5191 17.4719 48.0972 17.4719H61.7882V20.5039H48.3448C48.2653 20.4845 48.1827 20.4732 48.0973 20.4732H21.397V12.3459ZM10.289 27.6932H15.5136C16.0917 27.6932 16.5606 27.2244 16.5606 26.6462C16.5606 26.068 16.0917 25.5992 15.5136 25.5992H10.289V22.5672H20.1024C20.1819 22.5866 20.2645 22.5979 20.3499 22.5979H47.0502V25.7549C43.7794 26.7354 40.8264 28.4573 38.3866 30.7252H37.6195C37.54 30.7058 37.4573 30.6945 37.3719 30.6945H10.289V27.6932ZM2.09405 32.7886H8.99446C9.07394 32.8079 9.15658 32.8193 9.24199 32.8193H36.4069C35.5438 33.8606 34.7757 34.9829 34.1136 36.1721C34.0817 36.1692 34.0497 36.1672 34.0171 36.1672H25.6827C25.1045 36.1672 24.6356 36.6361 24.6356 37.2143C24.6356 37.7924 25.1045 38.2613 25.6827 38.2613H33.09C32.7211 39.1293 32.4071 40.026 32.1507 40.9465H9.24199H2.09405V32.7886ZM10.289 43.0406H31.6769C31.4607 44.2771 31.3469 45.5484 31.3469 46.8459C31.3469 48.3356 31.4964 49.7909 31.7798 51.1984H10.289V43.0406ZM2.09405 58.4184H8.69914C9.27731 58.4184 9.74617 57.9496 9.74617 57.3714C9.74617 56.7932 9.27731 56.3244 8.69914 56.3244H2.09405V53.2924H9.24199H32.3106C33.2477 56.3462 34.8327 59.1187 36.9042 61.4504H2.09405V58.4184ZM53.3612 66.7662C42.3771 66.7662 33.4409 57.83 33.4409 46.8459C33.4409 35.8618 42.3771 26.9257 53.3612 26.9257C64.3453 26.9257 73.2815 35.8618 73.2815 46.8459C73.2815 57.83 64.3453 66.7662 53.3612 66.7662Z" fill="var(--fill-0, #737373)"/>
</g>
</svg>
