<svg width="31" height="31" viewBox="0 0 31 31" fill="none" xmlns="http://www.w3.org/2000/svg">
<path d="M28.493 20.8557L26.6722 26.7757L23.0977 25.8357L28.493 20.8557Z" fill="#E4761B" stroke="#E4761B" stroke-width="0.0571157"/>
<path d="M23.0977 25.8357L26.5453 21.2934L28.493 20.8557L23.0977 25.8357Z" fill="#E4761B" stroke="#E4761B" stroke-width="0.0571157"/>
<path d="M25.814 16.3927L28.493 20.8561L26.5453 21.2938L25.814 16.3927ZM25.814 16.3927L27.5378 15.2446L28.493 20.8561L25.814 16.3927Z" fill="#F6851B" stroke="#F6851B" stroke-width="0.0571157"/>
<path d="M23.6201 13.0199L28.5752 11.0681L28.3289 12.1373L23.6201 13.0199ZM28.1722 13.4217L23.6201 13.0199L28.3289 12.1373L28.1722 13.4217Z" fill="#763D16" stroke="#763D16" stroke-width="0.0571157"/>
<path d="M28.1722 13.4217L27.5379 15.2444L23.6201 13.0199L28.1722 13.4217ZM29.1647 11.5201L28.3289 12.1373L28.5752 11.0681L29.1647 11.5201ZM28.1722 13.4217L28.3289 12.1373L28.9931 12.6683L28.1722 13.4217Z" fill="#763D16" stroke="#763D16" stroke-width="0.0571157"/>
<path d="M19.2549 24.3932L20.4936 24.7736L23.098 25.8356L19.2549 24.3932Z" fill="#E2761B" stroke="#E2761B" stroke-width="0.0571157"/>
<path d="M27.5386 15.245L28.1729 13.4223L28.7176 13.8241L27.5386 15.245ZM27.5386 15.245L22.397 13.616L23.6208 13.0204L27.5386 15.245Z" fill="#763D16" stroke="#763D16" stroke-width="0.0571157"/>
<path d="M24.8446 7.43036L23.6208 13.0203L22.397 13.6159L24.8446 7.43036Z" fill="#763D16" stroke="#763D16" stroke-width="0.0571157"/>
<path d="M28.5752 11.0685L23.6201 13.0203L24.844 7.43036L28.5752 11.0685Z" fill="#763D16" stroke="#763D16" stroke-width="0.0571157"/>
<path d="M24.8438 7.42996L30.0152 6.8559L28.575 11.0681L24.8438 7.42996Z" fill="#763D16" stroke="#763D16" stroke-width="0.0571157"/>
<path d="M27.5386 15.2451L25.8148 16.3932L22.397 13.6161L27.5386 15.2451Z" fill="#F6851B" stroke="#F6851B" stroke-width="0.0571157"/>
<path d="M29.7913 2.83002L30.0152 6.85567L24.8438 7.42974L29.7913 2.83002Z" fill="#763D16" stroke="#763D16" stroke-width="0.0571157"/>
<path d="M29.792 2.83002L19.4566 10.0561L19.3223 5.15499L29.792 2.83002Z" fill="#E2761B" stroke="#E2761B" stroke-width="0.0571157"/>
<path d="M11.6357 4.56659L19.322 5.15501L19.4563 10.0561L11.6357 4.56659Z" fill="#F6851B" stroke="#F6851B" stroke-width="0.0571157"/>
<path d="M22.3967 13.6159L19.4565 10.0567L24.8444 7.43036L22.3967 13.6159Z" fill="#763D16" stroke="#763D16" stroke-width="0.0571157"/>
<path d="M22.3962 13.6161L25.814 16.3932L21.0156 16.9027L22.3962 13.6161Z" fill="#E4761B" stroke="#E4761B" stroke-width="0.0571157"/>
<path d="M21.0162 16.9023L19.4565 10.0566L22.3967 13.6158L21.0162 16.9023Z" fill="#E4761B" stroke="#E4761B" stroke-width="0.0571157"/>
<path d="M24.8444 7.42974L19.4565 10.0561L29.792 2.83002L24.8444 7.42974Z" fill="#763D16" stroke="#763D16" stroke-width="0.0571157"/>
<path d="M11.7028 25.7209L14.143 28.1679L10.8223 25.2617L11.7028 25.7209Z" fill="#C0AD9E" stroke="#C0AD9E" stroke-width="0.0571157"/>
<path d="M23.0977 25.8358L24.2543 21.6093L26.5453 21.2935L23.0977 25.8358Z" fill="#CD6116" stroke="#CD6116" stroke-width="0.0571157"/>
<path d="M1.80762 13.9454L6.03134 9.67572L2.35237 13.4359L1.80762 13.9454Z" fill="#E2761B" stroke="#E2761B" stroke-width="0.0571157"/>
<path d="M26.5456 21.2935L24.2547 21.6092L25.8143 16.3924L26.5456 21.2935ZM19.4563 10.0561L15.3446 9.92695L11.6357 4.56659L19.4563 10.0561Z" fill="#F6851B" stroke="#F6851B" stroke-width="0.0571157"/>
<path d="M25.8144 16.3928L24.2548 21.6096L24.1279 19.0622L25.8144 16.3928Z" fill="#E4751F" stroke="#E4751F" stroke-width="0.0571157"/>
<path d="M21.0156 16.9022L25.814 16.3928L24.1275 19.0622L21.0156 16.9022Z" fill="#CD6116" stroke="#CD6116" stroke-width="0.0571157"/>
<path d="M15.3442 9.92719L19.456 10.0563L21.0157 16.9021L15.3442 9.92719Z" fill="#F6851B" stroke="#F6851B" stroke-width="0.0571157"/>
<path d="M15.3441 9.92726L4.24745 0.0532837L11.6352 4.5669L15.3441 9.92726ZM11.6278 27.2211L1.98634 30.0914L0.0610352 23.0232L11.6278 27.2211Z" fill="#E4761B" stroke="#E4761B" stroke-width="0.0571157"/>
<path d="M3.24072 15.7109L6.88238 12.9626L9.9345 13.6443L3.24072 15.7109Z" fill="#763D16" stroke="#763D16" stroke-width="0.0571157"/>
<path d="M9.93445 13.6444L6.88232 12.9627L8.51659 6.47577L9.93445 13.6444Z" fill="#763D16" stroke="#763D16" stroke-width="0.0571157"/>
<path d="M2.35303 13.4362L6.88271 12.9626L3.24105 15.7109L2.35303 13.4362Z" fill="#763D16" stroke="#763D16" stroke-width="0.0571157"/>
<path d="M24.1275 19.0622L22.2469 18.1509L21.0156 16.9023L24.1275 19.0622Z" fill="#CD6116" stroke="#CD6116" stroke-width="0.0571157"/>
<path d="M2.35213 13.436L2.03125 11.8071L6.88182 12.9624L2.35213 13.436Z" fill="#763D16" stroke="#763D16" stroke-width="0.0571157"/>
<path d="M21.8589 20.2029L22.2469 18.1506L24.1275 19.0619L21.8589 20.2029Z" fill="#233447" stroke="#233447" stroke-width="0.0571157"/>
<path d="M24.2543 21.6095L21.8589 20.203L24.1275 19.0621L24.2543 21.6095Z" fill="#F6851B" stroke="#F6851B" stroke-width="0.0571157"/>
<path d="M6.88182 12.9627L2.03125 11.8074L1.63574 10.4368L6.88182 12.9627ZM8.51608 6.47577L6.88182 12.9627L1.63574 10.4368L8.51608 6.47577ZM8.51608 6.47577L15.3442 9.92736L9.93394 13.6444L8.51608 6.47577Z" fill="#763D16" stroke="#763D16" stroke-width="0.0571157"/>
<path d="M9.93408 13.6443L15.3443 9.92719L17.7547 17.0097L9.93408 13.6443ZM17.7547 17.0097L10.2774 16.8591L9.93408 13.6443L17.7547 17.0097Z" fill="#E4761B" stroke="#E4761B" stroke-width="0.0571157"/>
<path d="M3.24072 15.7109L9.9345 13.6443L10.2778 16.8591L3.24072 15.7109ZM21.0162 16.9021L17.7551 17.0097L15.3448 9.92719L21.0162 16.9021Z" fill="#F6851B" stroke="#F6851B" stroke-width="0.0571157"/>
<path d="M22.2469 18.1509L21.8589 20.2032L21.0156 16.9023L22.2469 18.1509Z" fill="#CD6116" stroke="#CD6116" stroke-width="0.0571157"/>
<path d="M4.24805 0.0532837L15.3446 9.92726L8.51654 6.47567L4.24805 0.0532837Z" fill="#763D16" stroke="#763D16" stroke-width="0.0571157"/>
<path d="M0.0620117 23.0232L9.41988 22.6501L11.6287 27.2211L0.0620117 23.0232Z" fill="#E4761B" stroke="#E4761B" stroke-width="0.0571157"/>
<path d="M11.6278 27.2208L9.41895 22.6498L14.0158 22.4345L11.6278 27.2208Z" fill="#CD6116" stroke="#CD6116" stroke-width="0.0571157"/>
<path d="M21.8597 20.203L24.2552 21.6094L25.576 24.6018L21.8597 20.203ZM10.2781 16.859L0.0620117 23.0231L3.241 15.7109L10.2781 16.859ZM9.41988 22.6499L0.0620117 23.0231L10.2781 16.859L9.41988 22.6499ZM21.0165 16.9021L21.6284 19.0405L18.6733 19.2055L21.0165 16.9021ZM18.6733 19.2055L17.7554 17.0097L21.0165 16.9021L18.6733 19.2055Z" fill="#F6851B" stroke="#F6851B" stroke-width="0.0571157"/>
<path d="M14.1433 28.1685L11.6284 27.2213L20.3744 28.6349L14.1433 28.1685Z" fill="#C0AD9E" stroke="#C0AD9E" stroke-width="0.0571157"/>
<path d="M3.2404 15.711L1.80762 13.9457L2.35237 13.4362L3.2404 15.711Z" fill="#763D16" stroke="#763D16" stroke-width="0.0571157"/>
<path d="M21.3669 27.5872L20.3744 28.6349L11.6284 27.2213L21.3669 27.5872Z" fill="#D7C1B3" stroke="#D7C1B3" stroke-width="0.0571157"/>
<path d="M21.837 25.0178L11.6284 27.2208L14.0164 22.4345L21.837 25.0178Z" fill="#E4761B" stroke="#E4761B" stroke-width="0.0571157"/>
<path d="M11.6284 27.2212L21.837 25.0182L21.3669 27.5872L11.6284 27.2212Z" fill="#D7C1B3" stroke="#D7C1B3" stroke-width="0.0571157"/>
<path d="M1.63561 10.4364L1.2998 4.91815L8.51595 6.47531L1.63561 10.4364ZM2.352 13.4359L1.3595 12.4671L2.03112 11.807L2.352 13.4359Z" fill="#763D16" stroke="#763D16" stroke-width="0.0571157"/>
<path d="M16.0825 18.4305L17.7541 17.0097L17.5153 20.4828L16.0825 18.4305Z" fill="#CD6116" stroke="#CD6116" stroke-width="0.0571157"/>
<path d="M17.7542 17.0097L16.0826 18.4305L13.6499 19.6432L17.7542 17.0097Z" fill="#CD6116" stroke="#CD6116" stroke-width="0.0571157"/>
<path d="M25.5752 24.6019L25.12 24.279L21.8589 20.2031L25.5752 24.6019Z" fill="#F6851B" stroke="#F6851B" stroke-width="0.0571157"/>
<path d="M13.6508 19.6433L10.2778 16.8591L17.7552 17.0098L13.6508 19.6433Z" fill="#CD6116" stroke="#CD6116" stroke-width="0.0571157"/>
<path d="M17.5166 20.4828L17.7554 17.0097L18.6733 19.2055L17.5166 20.4828Z" fill="#E4751F" stroke="#E4751F" stroke-width="0.0571157"/>
<path d="M1.03125 10.9819L1.63571 10.4366L2.03121 11.8072L1.03125 10.9819Z" fill="#763D16" stroke="#763D16" stroke-width="0.0571157"/>
<path d="M17.5154 20.4829L13.6499 19.6433L16.0826 18.4306L17.5154 20.4829Z" fill="#233447" stroke="#233447" stroke-width="0.0571157"/>
<path d="M8.51595 6.47567L1.2998 4.91851L4.24746 0.0532837L8.51595 6.47567Z" fill="#763D16" stroke="#763D16" stroke-width="0.0571157"/>
<path d="M20.3742 28.6349L20.7846 29.7113L14.1431 28.1685L20.3742 28.6349Z" fill="#C0AD9E" stroke="#C0AD9E" stroke-width="0.0571157"/>
<path d="M14.0156 22.4345L13.6499 19.6431L17.5154 20.4827L14.0156 22.4345Z" fill="#F6851B" stroke="#F6851B" stroke-width="0.0571157"/>
<path d="M10.2778 16.8591L13.6508 19.6433L14.0165 22.4347L10.2778 16.8591Z" fill="#E4751F" stroke="#E4751F" stroke-width="0.0571157"/>
<path d="M18.6723 19.2056L21.6274 19.0405L25.1199 24.2789L18.6723 19.2056ZM10.2771 16.8591L14.0158 22.4347L9.41895 22.65L10.2771 16.8591Z" fill="#F6851B" stroke="#F6851B" stroke-width="0.0571157"/>
<path d="M18.6733 19.2053L22.3448 24.58L17.5166 20.4826L18.6733 19.2053Z" fill="#E4751F" stroke="#E4751F" stroke-width="0.0571157"/>
<path d="M17.5166 20.483L22.3448 24.5804L21.8373 25.0181L17.5166 20.483Z" fill="#F6851B" stroke="#F6851B" stroke-width="0.0571157"/>
<path d="M21.8362 25.0177L14.0156 22.4344L17.5155 20.4826L21.8362 25.0177ZM25.1197 24.2786L22.3437 24.58L18.6722 19.2053L25.1197 24.2786Z" fill="#F6851B" stroke="#F6851B" stroke-width="0.0571157"/>
<path d="M25.8509 26.8046L24.657 29.1081L20.784 29.7108L25.8509 26.8046ZM20.784 29.7108L20.3735 28.6345L21.366 27.5868L20.784 29.7108Z" fill="#C0AD9E" stroke="#C0AD9E" stroke-width="0.0571157"/>
<path d="M21.3667 27.5868L22.0981 27.3069L20.7847 29.7108L21.3667 27.5868ZM20.7847 29.7108L22.0981 27.3069L25.8516 26.8046L20.7847 29.7108Z" fill="#C0AD9E" stroke="#C0AD9E" stroke-width="0.0571157"/>
<path d="M25.1201 24.2785L26.038 24.8167L23.2471 25.1396L25.1201 24.2785Z" fill="#161616" stroke="#161616" stroke-width="0.0571157"/>
<path d="M23.2477 25.1396L22.3447 24.5799L25.1207 24.2785L23.2477 25.1396ZM22.9268 25.563L26.3222 25.1683L25.8521 26.8044L22.9268 25.563Z" fill="#161616" stroke="#161616" stroke-width="0.0571157"/>
<path d="M25.8516 26.805L22.098 27.3073L22.9263 25.5636L25.8516 26.805ZM22.098 27.3073L21.3667 27.5872L21.8368 25.0182L22.098 27.3073ZM21.8368 25.0182L22.3443 24.5805L23.2472 25.1402L21.8368 25.0182ZM26.0382 24.8173L26.3217 25.1689L22.9263 25.5636L26.0382 24.8173Z" fill="#161616" stroke="#161616" stroke-width="0.0571157"/>
<path d="M22.9264 25.5636L23.2473 25.1402L26.0382 24.8173L22.9264 25.5636ZM21.8369 25.0182L22.9264 25.5636L22.0981 27.3073L21.8369 25.0182Z" fill="#161616" stroke="#161616" stroke-width="0.0571157"/>
<path d="M23.2473 25.1402L22.9264 25.5636L21.8369 25.0182L23.2473 25.1402Z" fill="#161616" stroke="#161616" stroke-width="0.0571157"/>
</svg>
