<svg width="40" height="40" viewBox="0 0 40 40" fill="none" xmlns="http://www.w3.org/2000/svg">
<path d="M19.6924 38.3334C29.6618 38.3334 37.7437 30.1252 37.7437 20C37.7437 9.87481 29.6618 1.66669 19.6924 1.66669C9.72295 1.66669 1.64111 9.87481 1.64111 20C1.64111 30.1252 9.72295 38.3334 19.6924 38.3334Z" fill="#3375BB"/>
<path fill-rule="evenodd" clip-rule="evenodd" d="M19.097 8.80805C19.5157 8.4529 20.1247 8.4529 20.5434 8.80805C23.6106 11.4096 27.1079 11.3895 28.4613 11.3818C28.5288 11.3814 28.5909 11.381 28.6475 11.381C28.9496 11.381 29.2392 11.5041 29.4512 11.7227C29.6633 11.9414 29.7801 12.2373 29.7755 12.5441C29.7115 16.8558 29.5413 19.9331 29.2074 22.1884C28.8737 24.4424 28.3621 25.9872 27.5375 27.151C26.7072 28.3231 25.6399 28.9886 24.5035 29.6264C24.3066 29.7369 24.1058 29.8476 23.9002 29.9608C22.9027 30.5104 21.7939 31.1212 20.4778 32.08C20.0848 32.3664 19.5557 32.3664 19.1626 32.08C17.8478 31.1221 16.7404 30.5116 15.7444 29.9624C15.5379 29.8485 15.3362 29.7373 15.1384 29.6262C14.0029 28.9882 12.9371 28.3225 12.1083 27.15C11.2856 25.9861 10.7757 24.4414 10.4432 22.1879C10.1105 19.9327 9.94115 16.8556 9.87708 12.5441C9.87252 12.2373 9.98935 11.9414 10.2014 11.7227C10.4134 11.5041 10.703 11.381 11.0052 11.381C11.061 11.381 11.1226 11.3814 11.1895 11.3818C12.5319 11.3895 16.0296 11.4098 19.097 8.80805ZM12.1536 13.6655C12.2294 17.3404 12.3941 19.946 12.6747 21.8483C12.9841 23.9458 13.4201 25.0763 13.9413 25.8136C14.4564 26.5423 15.1324 27.0038 16.2307 27.6209C16.4096 27.7214 16.5982 27.8253 16.7964 27.9345C17.6411 28.3997 18.6578 28.9597 19.8202 29.7539C20.9842 28.9587 22.0025 28.3983 22.8487 27.9327C23.0459 27.8241 23.2339 27.7207 23.4121 27.6207C24.5118 27.0034 25.1894 26.5417 25.706 25.8126C26.2284 25.0752 26.6656 23.9448 26.9761 21.8477C27.2577 19.9457 27.4231 17.3404 27.499 13.6657C25.7621 13.6088 22.7031 13.2446 19.8202 11.137C16.9408 13.242 13.8862 13.608 12.1536 13.6655Z" fill="white"/>
</svg>
