<svg width="34" height="34" viewBox="0 0 34 34" fill="none" xmlns="http://www.w3.org/2000/svg">
<path d="M33.3333 16.6667C33.3333 7.46192 25.8714 0 16.6667 0C7.46192 0 0 7.46192 0 16.6667C0 25.8714 7.46192 33.3333 16.6667 33.3333C25.8714 33.3333 33.3333 25.8714 33.3333 16.6667Z" fill="url(#paint0_radial_411_7)"/>
<path d="M11.0161 12.0138C14.1368 8.95839 19.1963 8.95839 22.317 12.0138L22.6925 12.3815C22.8486 12.5342 22.8486 12.7819 22.6925 12.9347L21.4078 14.1926C21.3298 14.269 21.2033 14.269 21.1252 14.1926L20.6084 13.6866C18.4314 11.5551 14.9017 11.5551 12.7247 13.6866L12.1712 14.2285C12.0932 14.3049 11.9667 14.3049 11.8887 14.2285L10.6039 12.9706C10.4479 12.8178 10.4479 12.5701 10.6039 12.4174L11.0161 12.0138ZM24.974 14.6152L26.1174 15.7347C26.2734 15.8875 26.2734 16.1352 26.1174 16.288L20.9616 21.3361C20.8055 21.4888 20.5525 21.4888 20.3965 21.3361C20.3965 21.3361 20.3965 21.3361 20.3965 21.3361L16.7372 17.7533C16.6982 17.7151 16.6349 17.7151 16.5959 17.7533C16.5959 17.7533 16.5959 17.7533 16.5959 17.7533L12.9367 21.3361C12.7807 21.4888 12.5277 21.4888 12.3717 21.3361C12.3717 21.3361 12.3717 21.3361 12.3717 21.3361L7.21566 16.2879C7.05962 16.1351 7.05962 15.8874 7.21566 15.7347L8.3591 14.6151C8.51513 14.4624 8.76811 14.4624 8.92414 14.6151L12.5835 18.198C12.6225 18.2362 12.6858 18.2362 12.7248 18.198C12.7248 18.198 12.7248 18.198 12.7248 18.198L16.384 14.6151C16.54 14.4624 16.793 14.4624 16.949 14.6151C16.949 14.6151 16.949 14.6151 16.949 14.6151L20.6084 18.198C20.6474 18.2362 20.7106 18.2362 20.7496 18.198L24.4089 14.6152C24.565 14.4624 24.8179 14.4624 24.974 14.6152Z" fill="white"/>
<defs>
<radialGradient id="paint0_radial_411_7" cx="0" cy="0" r="1" gradientUnits="userSpaceOnUse" gradientTransform="translate(0 16.6667) scale(33.3333)">
<stop stop-color="#5D9DF6"/>
<stop offset="1" stop-color="#006FFF"/>
</radialGradient>
</defs>
</svg>
